# xmcd
#
# Track frame offsets:
#	150
#	15130
#	35526
#	51486
#	70820
#	80698
#	92272
#	106028
#
# Disc length: 1695 seconds
#
# Revision: 0
# Processed by: cddbd v1.5.2PL0 Copyright (c) Steve Scherf et al.
# Submitted via: audiograbber 1.83.01
#
DISCID=54069d08
DTITLE=Jack Dawson - Instrumentals No 1
DYEAR=2012
DGENRE=
TTITLE0=Driving North
TTITLE1=Pawprints
TTITLE2=Sydney Pt. 1
TTITLE3=The Humid Blues
TTITLE4=Byron's Business Trip
TTITLE5=Sydney Pt. 2
TTITLE6=Waking
TTITLE7=Blue Sky Waltz
EXTD=
EXTT0=
EXTT1=
EXTT2=
EXTT3=
EXTT4=
EXTT5=
EXTT6=
EXTT7=
PLAYORDER=
